<svg width="18" height="18" viewBox="0 0 18 18" fill="none" xmlns="http://www.w3.org/2000/svg">
<path d="M13.746 16.875C13.0598 16.875 12.0958 16.6268 10.6523 15.8203C8.89694 14.8359 7.53921 13.9272 5.79335 12.1859C4.11007 10.5036 3.29093 9.4145 2.14448 7.32833C0.849325 4.97286 1.07011 3.73817 1.3169 3.21048C1.61081 2.57977 2.04464 2.20255 2.60538 1.82813C2.92388 1.61946 3.26093 1.44058 3.61225 1.29376C3.64741 1.27864 3.68011 1.26423 3.70929 1.25122C3.88331 1.17282 4.14698 1.05435 4.48097 1.18091C4.70386 1.26458 4.90284 1.43579 5.21433 1.74341C5.85311 2.37341 6.72604 3.77649 7.04807 4.46556C7.26429 4.92997 7.40737 5.23653 7.40772 5.58036C7.40772 5.9829 7.20522 6.29333 6.95948 6.62837C6.91343 6.6913 6.86772 6.75142 6.82343 6.80977C6.55589 7.16134 6.49718 7.26294 6.53585 7.44434C6.61425 7.80892 7.19889 8.89419 8.15972 9.8529C9.12054 10.8116 10.1745 11.3593 10.5405 11.4374C10.7296 11.4778 10.8333 11.4166 11.1962 11.1396C11.2482 11.0999 11.3016 11.0588 11.3575 11.0176C11.7323 10.7388 12.0283 10.5416 12.4214 10.5416H12.4235C12.7655 10.5416 13.0584 10.69 13.5435 10.9347C14.1764 11.2539 15.6216 12.1156 16.2555 12.755C16.5638 13.0658 16.7357 13.2641 16.8198 13.4866C16.9463 13.8217 16.8271 14.0843 16.7494 14.2601C16.7364 14.2893 16.722 14.3213 16.7069 14.3568C16.5589 14.7075 16.379 15.0438 16.1694 15.3615C15.7957 15.9205 15.417 16.3533 14.7849 16.6475C14.4603 16.8011 14.1051 16.8789 13.746 16.875Z" fill="#8492A6"/>
</svg>
