<svg width="36" height="36" viewBox="0 0 36 36" fill="none" xmlns="http://www.w3.org/2000/svg">
<circle cx="18" cy="18" r="18" fill="#E8F3FF"/>
<g clip-path="url(#clip0)">
<path d="M16.4958 12.4391C16.438 13.3701 17.5622 13.8642 18.2115 13.2149C18.8594 12.567 18.3682 11.4413 17.4357 11.4992C16.9303 11.5307 16.5249 11.9444 16.4958 12.4391ZM16.8034 8.6138C17.2007 8.26155 17.7993 8.26155 18.1966 8.6138L23.3162 13.1528C23.5412 13.3519 23.6698 13.638 23.6698 13.9386V27.5997C23.6698 28.1795 23.1994 28.6499 22.6196 28.6499H12.3804C11.8006 28.6499 11.3302 28.1795 11.3302 27.5997V13.9386C11.3302 13.638 11.4588 13.3519 11.6838 13.1528C15.0531 10.1659 13.8564 11.2268 16.8034 8.6138Z" fill="#D1E7FF"/>
<path d="M18.1966 8.61372C17.7991 8.26125 17.2009 8.26125 16.8034 8.61372L11.6837 13.1527C11.4588 13.3518 11.3302 13.6379 11.3302 13.9386C11.3302 28.5666 11.3205 27.6541 11.3501 27.8039C11.5643 28.8911 13.1903 28.6586 13.1238 27.5524C12.7575 21.4656 15.6128 15.7946 20.9956 12.6675C21.5231 12.3611 21.5989 11.6301 21.1425 11.2254L18.1966 8.61372ZM16.4958 12.439C16.5268 11.938 16.9346 11.5302 17.4357 11.4991C18.3667 11.4413 18.8608 12.5655 18.2115 13.2148C17.5636 13.8627 16.4379 13.3715 16.4958 12.439Z" fill="#E8F3FF"/>
<path d="M21.2194 19.286V23.9243C21.2194 24.6975 20.5923 25.3245 19.8191 25.3245H15.1808C14.4077 25.3245 13.7806 24.6975 13.7806 23.9243V19.286C13.7806 18.5128 14.4077 17.8857 15.1808 17.8857H19.8191C20.5923 17.8857 21.2194 18.5128 21.2194 19.286Z" fill="#E8F3FF"/>
<path d="M23.3197 25.5432V13.9386C23.3197 13.7384 23.2338 13.5475 23.0841 13.4147L17.9644 8.87601C17.6997 8.64134 17.3004 8.6413 17.0356 8.87601L14.8554 10.8087C15.2325 11.272 15.7307 11.6373 16.3103 11.8525C16.5411 11.4324 16.9878 11.147 17.5 11.147C18.2479 11.147 18.8565 11.7555 18.8565 12.5035C18.8565 12.6968 18.6997 12.8535 18.5064 12.8535C18.3131 12.8535 18.1564 12.6968 18.1564 12.5035C18.1564 12.1415 17.8619 11.8471 17.5 11.8471C17.1381 11.8471 16.8436 12.1415 16.8436 12.5035C16.8436 12.8654 17.1381 13.1598 17.5 13.1598C17.6933 13.1598 17.8501 13.3166 17.8501 13.5099C17.8501 13.7032 17.6933 13.8599 17.5 13.8599C16.7631 13.8599 16.162 13.2692 16.1443 12.5365C15.4221 12.2848 14.8003 11.8415 14.3312 11.2735L11.9159 13.4147C11.7661 13.5474 11.6803 13.7384 11.6803 13.9386V27.5998C11.6803 27.9858 11.9943 28.2999 12.3804 28.2999H22.6196C23.0057 28.2999 23.3197 27.9858 23.3197 27.5998C23.3197 27.4065 23.4765 27.2497 23.6698 27.2497C23.8631 27.2497 24.0199 27.4065 24.0199 27.5998C24.0199 28.3719 23.3917 29 22.6196 29H12.3804C11.6083 29 10.9801 28.3719 10.9801 27.5998V13.9386C10.9801 13.5382 11.1519 13.1563 11.4515 12.8908L13.9304 10.6931C13.5831 10.086 13.3868 9.38706 13.3868 8.65281C13.3868 8.45949 13.5435 8.30275 13.7368 8.30275C13.9301 8.30275 14.0869 8.45949 14.0869 8.65281C14.0869 9.21067 14.2236 9.74399 14.4677 10.2168L16.5711 8.35211C17.1007 7.88263 17.8993 7.88263 18.4288 8.35211L23.5485 12.8908C23.848 13.1563 24.0198 13.5382 24.0198 13.9386V25.5432C24.0198 25.7365 23.8631 25.8933 23.6698 25.8933C23.4764 25.8933 23.3197 25.7366 23.3197 25.5432ZM19.8191 17.5356C20.7843 17.5356 21.5694 18.3208 21.5694 19.2859V23.9242C21.5694 24.8893 20.7843 25.6745 19.8191 25.6745H15.1809C14.2157 25.6745 13.4306 24.8893 13.4306 23.9242V19.2859C13.4306 18.3208 14.2157 17.5356 15.1809 17.5356H19.8191ZM19.8191 18.2357H15.1809C14.6018 18.2357 14.1307 18.7068 14.1307 19.2859V23.9242C14.1307 24.5032 14.6018 24.9743 15.1809 24.9743H19.8191C20.3982 24.9743 20.8693 24.5032 20.8693 23.9242V19.2859C20.8693 18.7068 20.3982 18.2357 19.8191 18.2357Z" fill="#2E58FF"/>
</g>
<defs>
<clipPath id="clip0">
<rect width="21" height="21" fill="white" transform="translate(7 8)"/>
</clipPath>
</defs>
</svg>
