<svg width="20" height="20" viewBox="0 0 20 20" fill="none" xmlns="http://www.w3.org/2000/svg">
<path fill-rule="evenodd" clip-rule="evenodd" d="M5.30937 3.59566C6.55772 2.3598 8.24338 1.66658 10 1.66667C11.7566 1.66658 13.4423 2.3598 14.6906 3.59566C15.939 4.83152 16.6491 6.51014 16.6667 8.26667C16.6667 12.8333 10.8333 17.9167 10.5417 18.1333C10.3907 18.2624 10.1986 18.3334 10 18.3334C9.80137 18.3334 9.60928 18.2624 9.45834 18.1333L9.45698 18.1322C9.18788 17.899 3.33334 12.8254 3.33334 8.26667C3.3509 6.51014 4.06103 4.83152 5.30937 3.59566ZM8.37959 10.3418C8.85923 10.6623 9.42314 10.8333 10 10.8333C10.7736 10.8333 11.5154 10.526 12.0624 9.97907C12.6094 9.43209 12.9167 8.69022 12.9167 7.91667C12.9167 7.33981 12.7456 6.7759 12.4251 6.29626C12.1046 5.81662 11.6491 5.44278 11.1162 5.22202C10.5832 5.00127 9.99677 4.94351 9.43099 5.05605C8.86521 5.16859 8.34551 5.44637 7.93761 5.85428C7.5297 6.26218 7.25192 6.78188 7.13938 7.34766C7.02684 7.91344 7.0846 8.49988 7.30535 9.03283C7.52611 9.56578 7.89995 10.0213 8.37959 10.3418ZM11.25 7.91667C11.25 8.60703 10.6904 9.16667 10 9.16667C9.30965 9.16667 8.75 8.60703 8.75 7.91667C8.75 7.22632 9.30965 6.66667 10 6.66667C10.6904 6.66667 11.25 7.22632 11.25 7.91667Z" fill="#8492A6"/>
</svg>
