<svg width="36" height="36" viewBox="0 0 36 36" fill="none" xmlns="http://www.w3.org/2000/svg">
<circle cx="18" cy="18" r="18" fill="#E8F3FF"/>
<path d="M17.7166 15.2307H21.867C22.0935 15.2307 22.2771 15.0471 22.2771 14.8206C22.2771 14.594 22.0935 14.4104 21.867 14.4104H17.7166C17.49 14.4104 17.3064 14.594 17.3064 14.8206C17.3064 15.0471 17.49 15.2307 17.7166 15.2307Z" fill="#2E58FF"/>
<path d="M22.1014 18.3062H17.7166C17.49 18.3062 17.3064 18.4898 17.3064 18.7163C17.3064 18.9428 17.49 19.1265 17.7166 19.1265H22.1014C22.3279 19.1265 22.5115 18.9428 22.5115 18.7163C22.5115 18.4898 22.3279 18.3062 22.1014 18.3062Z" fill="#2E58FF"/>
<path d="M22.1014 22.2021H17.7166C17.49 22.2021 17.3064 22.3858 17.3064 22.6123C17.3064 22.8388 17.49 23.0225 17.7166 23.0225H22.1014C22.3279 23.0225 22.5115 22.8388 22.5115 22.6123C22.5115 22.3858 22.3279 22.2021 22.1014 22.2021Z" fill="#2E58FF"/>
<path d="M25.5064 24.4272C25.368 24.4272 25.2312 24.4204 25.0962 24.4072V26.7357C25.0962 26.9805 24.8971 27.1796 24.6523 27.1796H11.2643C11.0195 27.1797 10.8203 26.9806 10.8203 26.7358V10.3655C10.8203 10.1207 11.0195 9.92158 11.2642 9.92158H13.8187V10.9358H12.2464C12.0199 10.9358 11.8363 11.1194 11.8363 11.346V25.7553C11.8363 25.9818 12.0199 26.1655 12.2464 26.1655H23.6701C23.8966 26.1655 24.0803 25.9818 24.0803 25.7553V24.1766C23.7906 24.0711 23.5158 23.9344 23.2599 23.7705V25.3451H12.6566V11.7561H23.2599V17.5091C23.5158 17.3451 23.7906 17.2084 24.0803 17.1029V11.346C24.0803 11.1194 23.8966 10.9358 23.6701 10.9358H22.0978V9.92158H24.6523C24.897 9.92158 25.0962 10.1207 25.0962 10.3655V16.8723C25.2311 16.8591 25.3679 16.8523 25.5063 16.8523C25.6447 16.8523 25.7815 16.8591 25.9165 16.8723V10.3655C25.9165 9.66839 25.3494 9.10127 24.6523 9.10127H20.1359C20.0957 7.93577 19.1343 7 17.9583 7C16.7822 7 15.8208 7.93577 15.7806 9.10127H11.2643C10.5671 9.10127 10 9.66839 10 10.3655V26.7358C10 27.4329 10.5671 28 11.2643 28H24.6523C25.3494 28 25.9165 27.4329 25.9165 26.7358V24.4072C25.7816 24.4204 25.6448 24.4272 25.5064 24.4272ZM14.639 9.92158H16.221C16.3433 9.92158 16.4592 9.86699 16.5372 9.77274C16.6151 9.67848 16.6469 9.55437 16.6239 9.43428C16.6078 9.35024 16.5996 9.26378 16.5996 9.17727C16.5996 8.42903 17.2091 7.82031 17.9583 7.82031C18.7074 7.82031 19.3169 8.42903 19.3169 9.17727C19.3169 9.26386 19.3087 9.35028 19.2927 9.4342C19.2696 9.55433 19.3014 9.67844 19.3793 9.77274C19.4573 9.86699 19.5732 9.92158 19.6955 9.92158H21.2775V10.9358H14.639V9.92158Z" fill="#2E58FF"/>
<path d="M25.5063 24.8373C27.8155 24.8373 29.6875 22.958 29.6875 20.6397C29.6875 18.3215 27.8155 16.4421 25.5063 16.4421C23.1972 16.4421 21.3252 18.3215 21.3252 20.6397C21.3252 22.958 23.1972 24.8373 25.5063 24.8373Z" fill="#E2C4FF"/>
<path d="M26.2714 21.2419H25.5063C25.2799 21.2419 25.0962 21.0583 25.0962 20.8318V19.5518C25.0962 19.3252 25.2799 19.1416 25.5063 19.1416C25.7328 19.1416 25.9165 19.3252 25.9165 19.5518V20.4216H26.2714C26.4979 20.4216 26.6815 20.6052 26.6815 20.8318C26.6815 21.0583 26.4979 21.2419 26.2714 21.2419Z" fill="#2E58FF"/>
<path d="M16.1155 15.0672C16.2499 14.4987 15.898 13.929 15.3295 13.7946C14.7611 13.6602 14.1913 14.0121 14.057 14.5806C13.9226 15.149 14.2745 15.7188 14.8429 15.8532C15.4114 15.9875 15.9811 15.6356 16.1155 15.0672Z" fill="#E2C4FF"/>
<path d="M15.8324 23.359C16.2454 22.9459 16.2454 22.2762 15.8324 21.8632C15.4193 21.4501 14.7497 21.4501 14.3366 21.8632C13.9236 22.2762 13.9236 22.9459 14.3366 23.359C14.7497 23.772 15.4193 23.772 15.8324 23.359Z" fill="#E2C4FF"/>
<path d="M16.1146 18.9642C16.249 18.3957 15.8971 17.826 15.3286 17.6916C14.7602 17.5572 14.1904 17.9091 14.056 18.4776C13.9217 19.046 14.2736 19.6158 14.842 19.7501C15.4105 19.8845 15.9802 19.5326 16.1146 18.9642Z" fill="#E2C4FF"/>
</svg>
