<svg width="36" height="36" viewBox="0 0 36 36" fill="none" xmlns="http://www.w3.org/2000/svg">
<circle cx="18" cy="18" r="18" fill="#E8F3FF"/>
<path d="M21.375 8.3501C22.148 8.3501 22.775 8.97704 22.775 9.7501V27.2501C22.775 28.0232 22.148 28.6501 21.375 28.6501H11.75C10.9769 28.6501 10.35 28.0232 10.35 27.2501V9.7501C10.35 8.97704 10.9769 8.3501 11.75 8.3501H21.375Z" fill="#D1E7FF"/>
<path d="M21.4411 8.35154C22.567 8.40391 22.5073 10.1 21.3802 10.1H16.825C14.2154 10.1 12.1 12.2155 12.1 14.825V28.65H11.75C10.9768 28.65 10.35 28.0232 10.35 27.25V9.75001C10.35 8.97681 10.9768 8.35001 11.75 8.35001C11.8133 8.35001 21.3898 8.34913 21.4411 8.35154Z" fill="#E8F3FF"/>
<path d="M22.775 25.5874V27.2499C22.775 28.023 22.148 28.6499 21.375 28.6499H11.75C10.9769 28.6499 10.35 28.023 10.35 27.2499V25.5874H22.775Z" fill="#A2D0FF"/>
<path d="M12.1 25.5874V27.2551C12.1 28.3953 10.35 28.4536 10.35 27.2499V25.5874H12.1Z" fill="#D1E7FF"/>
<path d="M25.8375 13.7751V20.6001C25.8375 21.1798 25.3672 21.6501 24.7875 21.6501H16.5625V12.7251H24.7875C25.3672 12.7251 25.8375 13.1954 25.8375 13.7751Z" fill="#B9DCFF"/>
<path d="M25.8375 13.7751V14.6829C25.8375 15.2535 25.3808 15.7152 24.8103 15.7305C21.74 15.8129 19.2065 17.8025 18.3763 20.8725C18.2523 21.3311 17.8375 21.6501 17.3624 21.6501H16.5625V12.7251H24.7875C25.3674 12.7251 25.8375 13.1952 25.8375 13.7751Z" fill="#D1E7FF"/>
<path d="M16.5625 14.7375H25.8375V16.75H16.5625V14.7375Z" fill="#A2D0FF"/>
<path d="M25.8362 14.7375C25.8082 15.2827 25.3624 15.7158 24.8103 15.7307C23.8259 15.7569 22.5869 15.987 21.3658 16.75H16.5625V14.7375H25.8362Z" fill="#B9DCFF"/>
<path d="M16.125 27.3813C15.9317 27.3813 15.775 27.2245 15.775 27.0312C15.775 26.838 15.9317 26.6812 16.125 26.6812H17C17.1933 26.6812 17.35 26.838 17.35 27.0312C17.35 27.2245 17.1933 27.3813 17 27.3813H16.125ZM24.7875 12.375H23.125V9.75C23.125 8.78505 22.34 8 21.375 8H11.75C10.7851 8 10 8.78505 10 9.75V27.25C10 28.215 10.7851 29 11.75 29H21.375C22.34 29 23.125 28.215 23.125 27.25V23.6187C23.125 23.4255 22.9683 23.2688 22.775 23.2688C22.5817 23.2688 22.425 23.4255 22.425 23.6187V25.2375H12.4063C12.213 25.2375 12.0563 25.3942 12.0563 25.5875C12.0563 25.7808 12.213 25.9375 12.4063 25.9375H22.425V27.25C22.425 27.8289 21.9539 28.3 21.375 28.3H11.75C11.1711 28.3 10.7 27.8289 10.7 27.25V9.75C10.7 9.17106 11.1711 8.7 11.75 8.7H21.375C21.9539 8.7 22.425 9.17106 22.425 9.75V12.375H16.9125V11.85C16.9125 11.6567 16.7558 11.5 16.5625 11.5C16.3692 11.5 16.2125 11.6567 16.2125 11.85V22.525C16.2125 22.7183 16.3692 22.875 16.5625 22.875C16.7558 22.875 16.9125 22.7183 16.9125 22.525V13.075H24.7875C25.1735 13.075 25.4875 13.389 25.4875 13.775V14.3875H18.1813C17.988 14.3875 17.8313 14.5442 17.8313 14.7375C17.8313 14.9308 17.988 15.0875 18.1813 15.0875H25.4875V16.4H18.1813C17.988 16.4 17.8313 16.5567 17.8313 16.75C17.8313 16.9433 17.988 17.1 18.1813 17.1H25.4875V20.6C25.4875 20.986 25.1735 21.3 24.7875 21.3H18.6188C18.4255 21.3 18.2688 21.4567 18.2688 21.65C18.2688 21.8433 18.4255 22 18.6188 22H24.7875C25.5595 22 26.1875 21.372 26.1875 20.6V13.775C26.1875 13.003 25.5595 12.375 24.7875 12.375Z" fill="#2E58FF"/>
</svg>
