<svg width="36" height="36" viewBox="0 0 36 36" fill="none" xmlns="http://www.w3.org/2000/svg">
<mask id="mask0" mask-type="alpha" maskUnits="userSpaceOnUse" x="0" y="0" width="36" height="36">
<circle cx="18" cy="18" r="18" fill="#C4C4C4"/>
</mask>
<g mask="url(#mask0)">
<path d="M36 0H0V36H36V0Z" fill="#1BD741"/>
<path d="M5.41061 30.6031L7.174 24.3401C6.04004 22.4137 5.443 20.2219 5.443 17.9702C5.443 11.0373 11.0833 5.39697 18.0162 5.39697C24.9491 5.39697 30.5894 11.0373 30.5894 17.9702C30.5894 24.9031 24.9491 30.5434 18.0162 30.5434C15.856 30.5434 13.7407 29.9905 11.8694 28.9405L5.41061 30.6031ZM12.1996 26.6531L12.5845 26.8881C14.216 27.8841 16.0943 28.4106 18.0162 28.4106C23.7731 28.4106 28.4566 23.727 28.4566 17.9702C28.4566 12.2134 23.7731 7.52981 18.0162 7.52981C12.2594 7.52981 7.57584 12.2134 7.57584 17.9702C7.57584 19.9761 8.14594 21.924 9.22436 23.6033L9.48354 24.0069L8.46808 27.6136L12.1996 26.6531Z" fill="white"/>
<path d="M14.4843 12.1182L13.6684 12.0737C13.4122 12.0598 13.1608 12.1454 12.9671 12.3136C12.5716 12.6571 11.9392 13.3211 11.7449 14.1864C11.4552 15.4766 11.9029 17.0565 13.0615 18.6364C14.2201 20.2163 16.3793 22.7441 20.1973 23.8237C21.4276 24.1716 22.3954 23.9371 23.1422 23.4594C23.7336 23.0811 24.1413 22.4739 24.2882 21.7874L24.4185 21.179C24.4599 20.9856 24.3617 20.7894 24.182 20.7066L21.4248 19.4357C21.2458 19.3532 21.0335 19.4053 20.9131 19.5613L19.8307 20.9646C19.7489 21.0706 19.6089 21.1126 19.4825 21.0682C18.7413 20.8077 16.2582 19.7678 14.8957 17.1433C14.8366 17.0294 14.8513 16.8913 14.9351 16.7942L15.9696 15.5974C16.0753 15.4752 16.102 15.3034 16.0385 15.1549L14.8499 12.3742C14.7867 12.2262 14.6449 12.127 14.4843 12.1182Z" fill="white"/>
</g>
</svg>
